<svg width="24" height="24" viewBox="0 0 24 24" fill="none" xmlns="http://www.w3.org/2000/svg">
<path d="M10.6309 1.542C11.4006 0.819133 12.6005 0.818883 13.3701 1.542C13.5958 1.75408 13.7614 2.00737 13.8662 2.2793C16.7618 3.12549 18.9999 5.94156 19 10C19 12.6244 19.532 14.1023 20.5156 15.1768C20.7592 15.4429 21.6145 16.2129 21.7119 16.3115L22 16.6035V20.0137H15.875C15.6249 20.9984 15.0074 21.8606 14.0879 22.4219C12.806 23.2042 11.194 23.2041 9.91211 22.4219C8.87043 21.7861 8.29671 21.0753 8.09082 20.0137H2V16.6035L2.28809 16.3115C2.3936 16.2054 3.24446 15.4419 3.48633 15.1787C4.46901 14.1092 4.99996 12.6333 5 10C5.00012 5.92997 7.2355 3.11988 10.1348 2.27735C10.2396 2.00614 10.4057 1.75357 10.6309 1.542ZM10.1797 20.0137C10.321 20.2763 10.5611 20.475 10.9541 20.7149C11.5963 21.1067 12.4037 21.1066 13.0459 20.7149C13.343 20.5334 13.5755 20.2931 13.7363 20.0137H10.1797ZM12 4.0127C9.33277 4.0127 7 6.2199 7 10C7 13.1178 6.29374 15.0799 4.95801 16.5332C4.74778 16.7618 4.29586 17.1811 4 17.4522V18.0137H20V17.4522C19.7016 17.1777 19.2505 16.7572 19.04 16.5274C17.7059 15.07 17 13.1077 17 10C17 6.2313 14.6597 4.0127 12 4.0127Z" fill="white"/>
</svg>
