<?xml version="1.0" encoding="utf-8"?>
<svg fill="currentColor" height="44" viewBox="0 0 44 44" width="44" xmlns="http://www.w3.org/2000/svg">
<path d="M13.2687 3.57501C12.4437 3.98751 11.4125 5.15626 10.9312 6.25626C8.73125 11.6188 15.5375 16.1563 19.5937 12.0313C24.0625 7.63126 19.0437 0.825007 13.2687 3.57501Z"/>
<path d="M22.55 7.49365C22.825 10.4499 22.6188 11.1374 21.1063 12.6499C18.9063 14.8499 16.1563 15.5374 13.475 14.5749C11.8938 13.9562 11.275 13.9562 10.8625 14.6437C10.5188 15.1937 13.5438 18.6999 19.7313 24.8874L29.0813 34.3062L31.625 32.9999C35.0625 31.2812 38.9125 26.8124 39.8063 23.5812C42.6938 13.2687 35.9563 4.1249 25.575 4.1249H22.2063L22.55 7.49365Z"/>
<path d="M9.625 19.5938C9.625 22.2063 10.1063 22.825 16.0188 28.7375C21.3813 34.1 22.6875 35.0625 24.6125 35.0625C25.7812 35.0625 26.8125 34.8562 26.8125 34.5125C26.8125 34.2375 22.9625 30.1813 18.2188 25.4375L9.625 16.8438V19.5938Z"/>
<path d="M7.63125 30.5938C2.8875 34.9938 2.54375 36.4375 5.29375 39.325C8.3875 42.5563 9.69375 42.0063 16.3625 34.3063L17.875 32.5875L14.85 29.6313L11.8938 26.7438L7.63125 30.5938Z"/>
</svg>